<svg xmlns="http://www.w3.org/2000/svg" viewBox="0 0 1000 334"><path fill="#ffac27" d="M604 106q-47-43-116-45h-10l-26 3a223 223 0 0 0-331 19l-3 3a125 125 0 0 0-42 239q-25-12-42-34l-2-2-9-15q-11-23-12-50c0-62 50-113 113-113h1a205 205 0 0 1 315-25l1 1q26-9 55-9c53 0 101 23 134 60q-10-17-26-32"/><path fill="currentColor" d="m309 263-3 19q-11 6-28 5c-23 0-27-12-27-23l1-10 9-47h-17l4-22h17l9-26h28l-5 26h28l-4 22h-28l-8 42-1 6q-1 7 9 8zm52-121q15 1 16 16c0 10-9 18-18 18-10 0-16-8-16-16 0-10 9-18 18-18m9 43-15 79h17l-3 17q-7 6-24 6c-17 0-21-9-21-17l1-11 14-74zm-122-46-25 127h17l-3 16q-9 5-24 6c-19 0-21-14-21-19l2-18 17-88-2-1-16-2 4-19c14-2 36-3 51-2m-58 70c0 32-34 40-62 37v7q1 14 22 13 14 0 27-5l1 21q-12 5-40 6c-17 0-43-9-43-38 0-50 37-66 60-66 19-1 35 8 35 25m-30 2q-1-8-9-7c-12 0-20 12-21 22 8 1 30-1 30-15m689 13c0 32-20 63-56 63-25 0-44-11-44-39 0-29 21-65 58-65 22 0 42 12 42 41m-33 1c0-8-3-16-11-16-15 0-22 27-22 40q0 12 11 14c13 0 22-23 22-38m41 35q13 1 13 13-1 14-15 15-12-1-13-13 2-14 15-15m86-25c0 22-23 27-42 25v3c0 5 2 10 15 10l19-3v14q-8 4-26 4c-13 0-31-6-31-26 0-34 26-45 41-45 13 1 24 7 24 18m-20 2q-1-5-6-5c-8 0-14 8-15 15 6 0 21-1 21-10m-180-14c0 41-33 65-52 65l-19-2-9 48h-25c-7 0-6-4-5-9l23-117-2-1-16-2 4-19 42-2-5 18h1q17-21 33-19c9 0 30 7 30 40m-32 2q0-17-9-17-16 1-21 33l-4 23 7 1c17 0 27-26 27-40m-95 40 16-1-3 17q-11 6-26 6-24-2-19-20l9-47q2-7-4-8-9 1-17 12l-12 61h-26q-6-1-4-6l12-59q2-7-5-8c-4 0-12 6-15 12l-12 62h-25q-6 0-5-6l14-72h-2l-15-2 4-19q20-3 42-2l-3 19q19-22 34-21 17 0 20 17 13-16 34-17c9 0 22 7 19 24zm359-25c0 7 21 16 21 28q0 19-28 20c-8 0-19-3-23-6l3-15q7 5 16 5 8 0 8-5c0-9-20-15-20-29q0-20 26-21 12 0 22 8l-4 13q-7-5-13-5-8 1-8 7m-503-31c0 32-34 40-62 37v7q1 14 22 13 14 0 27-5l1 21q-12 5-40 6c-17 0-43-9-43-38 0-50 37-66 60-66 20-1 35 8 35 25m-29 2q-1-8-9-7c-12 0-19 12-21 22 8 1 30-1 30-15m189-72q2 4 9 6l-2 2a175 175 0 0 0-202-32l-18-19-1-1a182 182 0 0 0-262 19l-12 16h-6a105 105 0 0 0-47 199v2l-13-5-4-2q-23-12-38-32l-2-2-9-15q-12-23-12-50c0-63 51-113 113-113h1a205 205 0 0 1 315-25l1 1q26-9 55-9c53 0 101 23 134 60"/></svg>